<?xml version="1.0" encoding="UTF-8" standalone="no"?>
<!-- Generator: Adobe Illustrator 16.0.0, SVG Export Plug-In . SVG Version: 6.00 Build 0)  -->

<svg
   xmlns:dc="http://purl.org/dc/elements/1.1/"
   xmlns:cc="http://creativecommons.org/ns#"
   xmlns:rdf="http://www.w3.org/1999/02/22-rdf-syntax-ns#"
   xmlns:svg="http://www.w3.org/2000/svg"
   xmlns="http://www.w3.org/2000/svg"
   xmlns:sodipodi="http://sodipodi.sourceforge.net/DTD/sodipodi-0.dtd"
   xmlns:inkscape="http://www.inkscape.org/namespaces/inkscape"
   version="1.1"
   x="0px"
   y="0px"
   width="480px"
   height="192px"
   viewBox="0 0 480 192"
   enable-background="new 0 0 480 192"
   xml:space="preserve"
   id="svg2"
   inkscape:version="0.91 r13725"
   sodipodi:docname="icons1.svg"
   inkscape:export-filename="/Users/nic/schmelling.github.io/images/icons1.png"
   inkscape:export-xdpi="90"
   inkscape:export-ydpi="90"><metadata
     id="metadata62"><rdf:RDF><cc:Work
         rdf:about=""><dc:format>image/svg+xml</dc:format><dc:type
           rdf:resource="http://purl.org/dc/dcmitype/StillImage" /></cc:Work></rdf:RDF></metadata><defs
     id="defs60" /><sodipodi:namedview
     pagecolor="#ffffff"
     bordercolor="#666666"
     borderopacity="1"
     objecttolerance="10"
     gridtolerance="10"
     guidetolerance="10"
     inkscape:pageopacity="0"
     inkscape:pageshadow="2"
     inkscape:window-width="1398"
     inkscape:window-height="855"
     id="namedview58"
     showgrid="false"
     inkscape:zoom="0.82916667"
     inkscape:cx="7.839196"
     inkscape:cy="96"
     inkscape:window-x="42"
     inkscape:window-y="1"
     inkscape:window-maximized="1"
     inkscape:current-layer="svg2" /><g
     id="Layer_1" /><path
     style="fill:#818181;fill-opacity:1"
     inkscape:connector-curvature="0"
     id="path8"
     d="m 168,33.143 c -1.89,0.811 -3.779,1.316 -5.664,1.523 2.129,-1.282 3.573,-3.089 4.325,-5.422 -1.957,1.153 -4.032,1.948 -6.249,2.377 -1.947,-2.072 -4.343,-3.113 -7.188,-3.113 -2.725,0 -5.039,0.959 -6.965,2.876 -1.911,1.921 -2.874,4.241 -2.874,6.958 0,0.734 0.079,1.484 0.242,2.255 -4.017,-0.205 -7.784,-1.213 -11.314,-3.03 -3.52,-1.816 -6.511,-4.24 -8.964,-7.263 -0.894,1.522 -1.344,3.179 -1.344,4.964 0,1.688 0.395,3.247 1.189,4.689 0.793,1.442 1.852,2.607 3.203,3.501 -1.587,-0.06 -3.068,-0.477 -4.451,-1.248 l 0,0.122 c 0,2.371 0.748,4.457 2.234,6.258 1.499,1.793 3.375,2.927 5.657,3.395 -0.855,0.217 -1.722,0.335 -2.591,0.335 -0.566,0 -1.193,-0.05 -1.856,-0.156 0.629,1.976 1.786,3.591 3.473,4.856 1.691,1.275 3.592,1.924 5.725,1.971 -3.575,2.796 -7.645,4.2 -12.212,4.2 -0.875,0 -1.667,-0.036 -2.375,-0.129 4.566,2.953 9.603,4.43 15.1,4.43 3.5,0 6.776,-0.553 9.845,-1.659 3.064,-1.106 5.684,-2.589 7.852,-4.448 2.175,-1.856 4.046,-3.986 5.623,-6.405 1.573,-2.423 2.746,-4.945 3.517,-7.568 0.772,-2.637 1.161,-5.264 1.161,-7.902 0,-0.573 -0.014,-0.997 -0.034,-1.286 1.932,-1.402 3.578,-3.096 4.935,-5.081 z" /><g
     id="g24"
     style="fill:#818181;fill-opacity:1"><path
       style="fill:#818181;fill-opacity:1"
       inkscape:connector-curvature="0"
       id="path26"
       d="m 356.072,38.831 c 0.517,-1.563 0.786,-3.18 0.786,-4.849 0,-2.229 -0.5,-4.332 -1.484,-6.287 -2.059,0 -3.864,0.364 -5.446,1.125 -1.586,0.742 -3.375,1.91 -5.392,3.494 -2.537,-0.622 -5.231,-0.93 -8.083,-0.93 -3.114,0 -6.078,0.343 -8.909,1.01 -2.06,-1.616 -3.871,-2.8 -5.445,-3.563 -1.585,-0.757 -3.41,-1.136 -5.481,-1.136 -0.982,1.957 -1.475,4.058 -1.475,6.287 0,1.69 0.26,3.328 0.775,4.902 -2.62,3.064 -3.918,6.866 -3.918,11.422 0,3.988 0.594,7.176 1.786,9.552 0.637,1.26 1.456,2.35 2.481,3.319 1.014,0.954 2.184,1.74 3.492,2.344 1.309,0.583 2.626,1.081 3.943,1.471 1.337,0.407 2.805,0.691 4.403,0.872 1.612,0.186 3.026,0.3 4.261,0.35 1.225,0.07 2.588,0.091 4.088,0.091 1.775,0 3.375,-0.045 4.834,-0.135 1.428,-0.094 3.068,-0.293 4.935,-0.627 1.862,-0.336 3.481,-0.795 4.909,-1.366 1.41,-0.587 2.77,-1.405 4.054,-2.48 1.307,-1.078 2.325,-2.369 3.05,-3.841 1.169,-2.388 1.764,-5.569 1.764,-9.554 -10e-4,-4.571 -1.308,-8.396 -3.928,-11.471 z m -3.464,20.984 c -0.609,1.259 -1.384,2.249 -2.343,2.963 -0.938,0.731 -2.111,1.307 -3.516,1.734 -1.408,0.445 -2.74,0.729 -4.036,0.844 -1.282,0.142 -2.722,0.216 -4.296,0.216 l -4.848,0 c -1.574,0 -3.006,-0.074 -4.295,-0.216 -1.289,-0.116 -2.642,-0.401 -4.042,-0.844 -1.407,-0.427 -2.581,-1.003 -3.521,-1.734 -0.941,-0.715 -1.714,-1.704 -2.329,-2.963 -0.623,-1.263 -0.93,-2.729 -0.93,-4.419 0,-2.32 0.658,-4.287 1.993,-5.895 1.331,-1.615 3.122,-2.419 5.394,-2.419 0.832,0 2.709,0.196 5.622,0.6 1.375,0.22 2.884,0.32 4.539,0.32 1.647,0 3.163,-0.1 4.526,-0.32 2.968,-0.403 4.843,-0.6 5.617,-0.6 2.276,0 4.069,0.804 5.41,2.419 1.325,1.605 1.981,3.575 1.981,5.895 0.002,1.69 -0.313,3.156 -0.926,4.419 z" /><path
       style="fill:#818181;fill-opacity:1"
       inkscape:connector-curvature="0"
       id="path28"
       d="m 328.856,50.824 c -0.585,-0.658 -1.286,-0.984 -2.091,-0.984 -0.814,0 -1.5,0.326 -2.085,0.984 -0.591,0.654 -1.005,1.392 -1.247,2.199 -0.248,0.802 -0.365,1.592 -0.365,2.373 0,0.759 0.117,1.55 0.365,2.355 0.242,0.805 0.656,1.541 1.247,2.195 0.585,0.652 1.271,0.979 2.085,0.979 0.805,0 1.502,-0.327 2.091,-0.979 0.59,-0.654 1.004,-1.391 1.239,-2.195 0.241,-0.806 0.357,-1.597 0.357,-2.355 0,-0.782 -0.116,-1.57 -0.357,-2.373 -0.235,-0.807 -0.649,-1.547 -1.239,-2.199 z" /><path
       style="fill:#818181;fill-opacity:1"
       inkscape:connector-curvature="0"
       id="path30"
       d="m 347.311,50.824 c -0.577,-0.658 -1.271,-0.984 -2.072,-0.984 -0.807,0 -1.509,0.326 -2.104,0.984 -0.578,0.654 -0.994,1.392 -1.229,2.199 -0.238,0.802 -0.363,1.592 -0.363,2.373 0,0.759 0.125,1.55 0.363,2.355 0.235,0.805 0.651,1.541 1.229,2.195 0.592,0.652 1.297,0.979 2.104,0.979 0.801,0 1.497,-0.327 2.072,-0.979 0.597,-0.654 1.017,-1.391 1.256,-2.195 0.24,-0.806 0.344,-1.597 0.344,-2.355 0,-0.782 -0.107,-1.57 -0.344,-2.373 -0.241,-0.807 -0.66,-1.547 -1.256,-2.199 z" /></g><path
     style="fill:#ffffff;fill-opacity:1"
     inkscape:connector-curvature="0"
     id="path34"
     d="m 168,129.143 c -1.89,0.812 -3.779,1.316 -5.664,1.523 2.129,-1.282 3.573,-3.09 4.325,-5.422 -1.957,1.152 -4.032,1.947 -6.249,2.377 -1.947,-2.072 -4.343,-3.113 -7.188,-3.113 -2.725,0 -5.039,0.959 -6.965,2.877 -1.911,1.92 -2.874,4.24 -2.874,6.957 0,0.734 0.079,1.484 0.242,2.256 -4.017,-0.205 -7.784,-1.214 -11.314,-3.031 -3.52,-1.815 -6.511,-4.239 -8.964,-7.263 -0.894,1.522 -1.344,3.179 -1.344,4.964 0,1.688 0.395,3.246 1.189,4.689 0.793,1.441 1.852,2.607 3.203,3.502 -1.587,-0.061 -3.068,-0.478 -4.451,-1.248 l 0,0.121 c 0,2.371 0.748,4.457 2.234,6.259 1.499,1.794 3.375,2.927 5.657,3.395 -0.855,0.218 -1.722,0.335 -2.591,0.335 -0.566,0 -1.193,-0.05 -1.856,-0.156 0.629,1.977 1.786,3.592 3.473,4.857 1.691,1.274 3.592,1.924 5.725,1.971 -3.575,2.796 -7.645,4.199 -12.212,4.199 -0.875,0 -1.667,-0.035 -2.375,-0.129 4.566,2.953 9.603,4.43 15.1,4.43 3.5,0 6.776,-0.553 9.845,-1.659 3.064,-1.106 5.684,-2.589 7.852,-4.448 2.175,-1.856 4.046,-3.986 5.623,-6.405 1.573,-2.423 2.746,-4.945 3.517,-7.567 0.772,-2.637 1.161,-5.265 1.161,-7.902 0,-0.572 -0.014,-0.997 -0.034,-1.286 1.932,-1.404 3.578,-3.097 4.935,-5.083 z" /><g
     id="g50"
     style="fill:#ffffff;fill-opacity:1"><path
       style="fill:#ffffff;fill-opacity:1"
       inkscape:connector-curvature="0"
       id="path52"
       d="m 356.072,134.831 c 0.517,-1.563 0.786,-3.181 0.786,-4.849 0,-2.229 -0.5,-4.332 -1.484,-6.287 -2.059,0 -3.864,0.364 -5.446,1.125 -1.586,0.742 -3.375,1.91 -5.392,3.494 -2.537,-0.622 -5.231,-0.93 -8.083,-0.93 -3.114,0 -6.078,0.343 -8.909,1.01 -2.06,-1.615 -3.871,-2.8 -5.445,-3.562 -1.585,-0.757 -3.41,-1.137 -5.481,-1.137 -0.982,1.957 -1.475,4.059 -1.475,6.287 0,1.689 0.26,3.328 0.775,4.902 -2.62,3.062 -3.918,6.865 -3.918,11.421 0,3.988 0.594,7.176 1.786,9.552 0.637,1.26 1.456,2.35 2.481,3.319 1.014,0.954 2.184,1.74 3.492,2.344 1.309,0.583 2.626,1.081 3.943,1.472 1.337,0.406 2.805,0.69 4.403,0.871 1.612,0.186 3.026,0.301 4.261,0.35 1.225,0.07 2.588,0.092 4.088,0.092 1.775,0 3.375,-0.045 4.834,-0.136 1.428,-0.094 3.068,-0.293 4.935,-0.627 1.862,-0.337 3.481,-0.795 4.909,-1.366 1.41,-0.588 2.77,-1.405 4.054,-2.48 1.307,-1.078 2.325,-2.369 3.05,-3.841 1.169,-2.388 1.764,-5.569 1.764,-9.554 -10e-4,-4.571 -1.308,-8.395 -3.928,-11.47 z m -3.464,20.983 c -0.609,1.26 -1.384,2.249 -2.343,2.964 -0.938,0.731 -2.111,1.308 -3.516,1.734 -1.408,0.445 -2.74,0.729 -4.036,0.844 -1.282,0.142 -2.722,0.216 -4.296,0.216 l -4.848,0 c -1.574,0 -3.006,-0.074 -4.295,-0.216 -1.289,-0.116 -2.642,-0.401 -4.042,-0.844 -1.407,-0.427 -2.581,-1.003 -3.521,-1.734 -0.941,-0.715 -1.714,-1.704 -2.329,-2.964 -0.623,-1.262 -0.93,-2.729 -0.93,-4.419 0,-2.32 0.658,-4.287 1.993,-5.896 1.331,-1.615 3.122,-2.419 5.394,-2.419 0.832,0 2.709,0.196 5.622,0.6 1.375,0.22 2.884,0.319 4.539,0.319 1.647,0 3.163,-0.1 4.526,-0.319 2.968,-0.403 4.843,-0.6 5.617,-0.6 2.276,0 4.069,0.804 5.41,2.419 1.325,1.605 1.981,3.575 1.981,5.896 0.002,1.691 -0.313,3.158 -0.926,4.419 z" /><path
       style="fill:#ffffff;fill-opacity:1"
       inkscape:connector-curvature="0"
       id="path54"
       d="m 328.856,146.824 c -0.585,-0.658 -1.286,-0.984 -2.091,-0.984 -0.814,0 -1.5,0.326 -2.085,0.984 -0.591,0.654 -1.005,1.393 -1.247,2.199 -0.248,0.802 -0.365,1.592 -0.365,2.372 0,0.759 0.117,1.55 0.365,2.355 0.242,0.805 0.656,1.541 1.247,2.195 0.585,0.652 1.271,0.979 2.085,0.979 0.805,0 1.502,-0.327 2.091,-0.979 0.59,-0.654 1.004,-1.391 1.239,-2.195 0.241,-0.806 0.357,-1.597 0.357,-2.355 0,-0.782 -0.116,-1.57 -0.357,-2.372 -0.235,-0.806 -0.649,-1.547 -1.239,-2.199 z" /><path
       style="fill:#ffffff;fill-opacity:1"
       inkscape:connector-curvature="0"
       id="path56"
       d="m 347.311,146.824 c -0.577,-0.658 -1.271,-0.984 -2.072,-0.984 -0.807,0 -1.509,0.326 -2.104,0.984 -0.578,0.654 -0.994,1.393 -1.229,2.199 -0.238,0.802 -0.363,1.592 -0.363,2.372 0,0.759 0.125,1.55 0.363,2.355 0.235,0.805 0.651,1.541 1.229,2.195 0.592,0.652 1.297,0.979 2.104,0.979 0.801,0 1.497,-0.327 2.072,-0.979 0.597,-0.654 1.017,-1.391 1.256,-2.195 0.24,-0.806 0.344,-1.597 0.344,-2.355 0,-0.782 -0.107,-1.57 -0.344,-2.372 -0.241,-0.806 -0.66,-1.547 -1.256,-2.199 z" /></g><g
     style="clip-rule:evenodd;fill:#818181;fill-opacity:1;fill-rule:evenodd;stroke-linejoin:round;stroke-miterlimit:1.41400003"
     id="g4290"
     transform="matrix(2.9375,0,0,3.1290271,409.49944,23.046009)"><path
       id="path4282"
       d="m 0,7.345 c 0,-1.294 0.16,-2.59 0.16,-2.59 0,0 0.156,-1.1 0.636,-1.587 C 1.404,2.531 2.204,2.551 2.56,2.484 3.84,2.36 8,2.324 8,2.324 c 0,0 3.362,0.004 5.6,0.166 0.314,0.038 0.996,0.04 1.604,0.678 0.48,0.486 0.636,1.588 0.636,1.588 0,0 0.16,1.294 0.16,2.59 l 0,1.258 c 0,1.296 -0.16,2.59 -0.16,2.59 0,0 -0.156,1.102 -0.636,1.588 -0.608,0.638 -1.29,0.64 -1.604,0.678 -2.238,0.162 -5.6,0.166 -5.6,0.166 0,0 -4.16,-0.037 -5.44,-0.16 C 2.204,13.399 1.404,13.419 0.796,12.782 0.316,12.295 0.16,11.195 0.16,11.195 0.16,11.195 0,9.9 0,8.605 l 0,-1.26 z m 6.348,2.73 0,-4.495 4.323,2.255 -4.32,2.24 z"
       inkscape:connector-curvature="0"
       style="fill:#818181;fill-opacity:1" /></g><g
     transform="matrix(2.9375,0,0,3.1290271,409.49944,119.04601)"
     id="g4293"
     style="clip-rule:evenodd;fill:#ffffff;fill-opacity:1;fill-rule:evenodd;stroke-linejoin:round;stroke-miterlimit:1.41400003"><path
       style="fill:#ffffff;fill-opacity:1"
       inkscape:connector-curvature="0"
       d="m 0,7.345 c 0,-1.294 0.16,-2.59 0.16,-2.59 0,0 0.156,-1.1 0.636,-1.587 C 1.404,2.531 2.204,2.551 2.56,2.484 3.84,2.36 8,2.324 8,2.324 c 0,0 3.362,0.004 5.6,0.166 0.314,0.038 0.996,0.04 1.604,0.678 0.48,0.486 0.636,1.588 0.636,1.588 0,0 0.16,1.294 0.16,2.59 l 0,1.258 c 0,1.296 -0.16,2.59 -0.16,2.59 0,0 -0.156,1.102 -0.636,1.588 -0.608,0.638 -1.29,0.64 -1.604,0.678 -2.238,0.162 -5.6,0.166 -5.6,0.166 0,0 -4.16,-0.037 -5.44,-0.16 C 2.204,13.399 1.404,13.419 0.796,12.782 0.316,12.295 0.16,11.195 0.16,11.195 0.16,11.195 0,9.9 0,8.605 l 0,-1.26 z m 6.348,2.73 0,-4.495 4.323,2.255 -4.32,2.24 z"
       id="path4295" /></g><g
     id="g4415"
     transform="matrix(0.11624744,0,0,0.11624744,23,22.999942)"
     style="fill:#818181;fill-opacity:1"><g
       id="g4376"
       style="fill:#818181;fill-opacity:1"><path
         d="m 430.117,261.543 0,159.017 -92.188,0 0,-148.367 c 0,-37.271 -13.334,-62.707 -46.703,-62.707 -25.473,0 -40.632,17.142 -47.301,33.724 -2.432,5.928 -3.058,14.179 -3.058,22.477 l 0,154.873 -92.219,0 c 0,0 1.242,-251.285 0,-277.32 l 92.21,0 0,39.309 c -0.187,0.294 -0.43,0.611 -0.606,0.896 l 0.606,0 0,-0.896 c 12.251,-18.869 34.13,-45.824 83.102,-45.824 60.673,-0.001 106.157,39.636 106.157,124.818 z M 52.183,9.558 C 20.635,9.558 0,30.251 0,57.463 c 0,26.619 20.038,47.94 50.959,47.94 l 0.616,0 c 32.159,0 52.159,-21.317 52.159,-47.94 C 103.128,30.251 83.734,9.558 52.183,9.558 Z M 5.477,420.56 l 92.184,0 0,-277.32 -92.184,0 0,277.32 z"
         id="LinkedIn"
         inkscape:connector-curvature="0"
         style="fill:#818181;fill-opacity:1" /></g><g
       id="g4379"
       style="fill:#818181;fill-opacity:1" /><g
       id="g4381"
       style="fill:#818181;fill-opacity:1" /><g
       id="g4383"
       style="fill:#818181;fill-opacity:1" /><g
       id="g4385"
       style="fill:#818181;fill-opacity:1" /><g
       id="g4387"
       style="fill:#818181;fill-opacity:1" /><g
       id="g4389"
       style="fill:#818181;fill-opacity:1" /><g
       id="g4391"
       style="fill:#818181;fill-opacity:1" /><g
       id="g4393"
       style="fill:#818181;fill-opacity:1" /><g
       id="g4395"
       style="fill:#818181;fill-opacity:1" /><g
       id="g4397"
       style="fill:#818181;fill-opacity:1" /><g
       id="g4399"
       style="fill:#818181;fill-opacity:1" /><g
       id="g4401"
       style="fill:#818181;fill-opacity:1" /><g
       id="g4403"
       style="fill:#818181;fill-opacity:1" /><g
       id="g4405"
       style="fill:#818181;fill-opacity:1" /><g
       id="g4407"
       style="fill:#818181;fill-opacity:1" /></g><g
     style="fill:#ffffff;fill-opacity:1"
     transform="matrix(0.11624744,0,0,0.11624744,23,119.00044)"
     id="g4434"><g
       style="fill:#ffffff;fill-opacity:1"
       id="g4436"><path
         style="fill:#ffffff;fill-opacity:1"
         inkscape:connector-curvature="0"
         id="path4438"
         d="m 430.117,261.543 0,159.017 -92.188,0 0,-148.367 c 0,-37.271 -13.334,-62.707 -46.703,-62.707 -25.473,0 -40.632,17.142 -47.301,33.724 -2.432,5.928 -3.058,14.179 -3.058,22.477 l 0,154.873 -92.219,0 c 0,0 1.242,-251.285 0,-277.32 l 92.21,0 0,39.309 c -0.187,0.294 -0.43,0.611 -0.606,0.896 l 0.606,0 0,-0.896 c 12.251,-18.869 34.13,-45.824 83.102,-45.824 60.673,-0.001 106.157,39.636 106.157,124.818 z M 52.183,9.558 C 20.635,9.558 0,30.251 0,57.463 c 0,26.619 20.038,47.94 50.959,47.94 l 0.616,0 c 32.159,0 52.159,-21.317 52.159,-47.94 C 103.128,30.251 83.734,9.558 52.183,9.558 Z M 5.477,420.56 l 92.184,0 0,-277.32 -92.184,0 0,277.32 z" /></g><g
       style="fill:#ffffff;fill-opacity:1"
       id="g4440" /><g
       style="fill:#ffffff;fill-opacity:1"
       id="g4442" /><g
       style="fill:#ffffff;fill-opacity:1"
       id="g4444" /><g
       style="fill:#ffffff;fill-opacity:1"
       id="g4446" /><g
       style="fill:#ffffff;fill-opacity:1"
       id="g4448" /><g
       style="fill:#ffffff;fill-opacity:1"
       id="g4450" /><g
       style="fill:#ffffff;fill-opacity:1"
       id="g4452" /><g
       style="fill:#ffffff;fill-opacity:1"
       id="g4454" /><g
       style="fill:#ffffff;fill-opacity:1"
       id="g4456" /><g
       style="fill:#ffffff;fill-opacity:1"
       id="g4458" /><g
       style="fill:#ffffff;fill-opacity:1"
       id="g4460" /><g
       style="fill:#ffffff;fill-opacity:1"
       id="g4462" /><g
       style="fill:#ffffff;fill-opacity:1"
       id="g4464" /><g
       style="fill:#ffffff;fill-opacity:1"
       id="g4466" /><g
       style="fill:#ffffff;fill-opacity:1"
       id="g4468" /></g><path
     inkscape:connector-curvature="0"
     style="fill:#818181;fill-opacity:1"
     d="m 219.93983,24.221595 c -1.89147,0 -3.43933,1.54845 -3.43933,3.43932 0,1.89186 1.54786,3.44086 3.43933,3.44086 1.89038,0 3.44086,-1.549 3.44086,-3.44086 0,-1.89087 -1.55048,-3.43932 -3.44086,-3.43932 z m -2.6241,11.04091 0,36.5159 5.24666,0 0,-36.5159 -5.24666,0 z m 12.56368,0 0,36.5159 14.23875,0 c 12.04942,-1e-5 19.38234,-8.88823 19.38234,-18.25796 0,-8.62008 -5.94268,-18.25794 -19.4331,-18.25794 l -14.18799,0 z m 5.24667,4.71291 8.08456,0 c 10.22442,0 14.88477,6.20912 14.88477,13.54503 0,4.49743 -2.73344,13.54657 -14.61866,13.54657 l -8.35067,0 0,-27.0916 z"
     id="path4524" /><path
     id="path4538"
     d="m 219.93983,120.2221 c -1.89147,0 -3.43933,1.54845 -3.43933,3.43932 0,1.89186 1.54786,3.44086 3.43933,3.44086 1.89038,0 3.44086,-1.549 3.44086,-3.44086 0,-1.89087 -1.55048,-3.43932 -3.44086,-3.43932 z m -2.6241,11.04091 0,36.5159 5.24666,0 0,-36.5159 -5.24666,0 z m 12.56368,0 0,36.5159 14.23875,0 c 12.04942,-1e-5 19.38234,-8.88823 19.38234,-18.25796 0,-8.62008 -5.94268,-18.25794 -19.4331,-18.25794 l -14.18799,0 z m 5.24667,4.71291 8.08456,0 c 10.22442,0 14.88477,6.20912 14.88477,13.54503 0,4.49743 -2.73344,13.54657 -14.61866,13.54657 l -8.35067,0 0,-27.0916 z"
     style="fill:#ffffff;fill-opacity:1"
     inkscape:connector-curvature="0" /></svg>